<svg width="524" height="255" viewBox="0 0 524 255" fill="none" xmlns="http://www.w3.org/2000/svg">
<mask id="path-1-outside-1_167_9" maskUnits="userSpaceOnUse" x="0" y="0" width="524" height="255" fill="black">
<rect fill="white" width="524" height="255"/>
<path d="M148.95 128.05V127H252.55V252.65H251.15V178.8C251.15 176.35 249.05 174.25 246.6 174.25C244.85 174.25 243.45 174.95 242.4 176.7C242.4 177.05 242.4 177.05 242.4 177.05C239.95 183 237.15 188.25 233.65 193.5V193.85C233.3 194.55 232.95 194.9 232.6 195.6C221.4 212.75 206.35 227.1 188.5 237.25C170.3 247.4 149.3 253 128.3 253.35H125.5C108.7 253 92.25 249.5 76.85 243.2C62.15 236.55 48.85 227.45 37.3 215.9C26.1 204.35 17 191.05 10.7 176.35C4.4 160.95 1.25 144.5 1.25 127.7C1.25 110.9 4.4 94.45 10.7 79.05C17 64 26.1 50.7 37.3 39.15C48.85 27.6 62.15 18.5 76.85 12.2C92.25 5.54999 108.7 2.05 125.5 2.05H128.3C154.55 2.05 179.4 10.45 200.75 25.85C210.9 33.2 220 42.3 227.35 52.1C235.05 62.6 241 73.8 245.2 85.7L245.55 86.4H224.55V86.05C217.55 62.25 204.95 41.95 187.8 26.9C170.3 11.5 149.65 3.44998 127.95 3.09998H125.5C98.2 3.44998 72.3 16.75 53.05 40.2C33.8 63.65 22.95 94.45 22.95 127.7C22.95 160.6 33.8 191.75 53.05 215.2C72.3 238.65 98.2 251.6 125.5 251.95H128.3C155.6 251.6 181.15 238.65 200.4 215.2C219.65 191.75 230.15 160.95 230.5 128.05H148.95ZM466.772 234.45C485.322 223.25 500.372 207.85 511.222 189.3L511.922 190C501.422 208.55 486.022 224.3 467.472 235.5C448.572 246.7 426.522 253 404.472 253H401.672C384.872 253 368.422 249.5 353.022 242.85C338.322 236.55 325.022 227.45 313.472 215.9C302.272 204.35 293.172 191.05 286.872 176C280.572 160.6 277.422 144.5 277.422 127.35C277.422 110.55 280.572 94.1 286.872 78.7C293.172 64 302.272 50.7 313.472 39.15C325.022 27.6 338.322 18.5 353.022 12.2C368.422 5.54999 384.872 2.05 401.672 1.69998H404.472C430.372 2.05 455.572 10.45 476.922 25.85C487.072 33.2 496.172 41.95 503.522 52.1C511.222 62.25 517.172 73.45 521.372 85.7L521.722 86.4H500.722V86.05C493.722 62.25 481.122 41.6 463.972 26.9C446.472 11.5 425.822 3.44998 404.472 3.09998H401.672C374.372 3.44998 348.472 16.4 329.222 39.85C309.972 63.3 299.122 94.45 299.122 127.35C299.122 160.6 309.972 191.75 329.222 215.2C348.472 238.3 374.372 251.6 401.672 251.95H404.122C426.522 251.6 447.872 245.65 466.772 234.45Z"/>
</mask>
<path d="M148.95 128.05V127H252.55V252.65H251.15V178.8C251.15 176.35 249.05 174.25 246.6 174.25C244.85 174.25 243.45 174.95 242.4 176.7C242.4 177.05 242.4 177.05 242.4 177.05C239.95 183 237.15 188.25 233.65 193.5V193.85C233.3 194.55 232.95 194.9 232.6 195.6C221.4 212.75 206.35 227.1 188.5 237.25C170.3 247.4 149.3 253 128.3 253.35H125.5C108.7 253 92.25 249.5 76.85 243.2C62.15 236.55 48.85 227.45 37.3 215.9C26.1 204.35 17 191.05 10.7 176.35C4.4 160.95 1.25 144.5 1.25 127.7C1.25 110.9 4.4 94.45 10.7 79.05C17 64 26.1 50.7 37.3 39.15C48.85 27.6 62.15 18.5 76.85 12.2C92.25 5.54999 108.7 2.05 125.5 2.05H128.3C154.55 2.05 179.4 10.45 200.75 25.85C210.9 33.2 220 42.3 227.35 52.1C235.05 62.6 241 73.8 245.2 85.7L245.55 86.4H224.55V86.05C217.55 62.25 204.95 41.95 187.8 26.9C170.3 11.5 149.65 3.44998 127.95 3.09998H125.5C98.2 3.44998 72.3 16.75 53.05 40.2C33.8 63.65 22.95 94.45 22.95 127.7C22.95 160.6 33.8 191.75 53.05 215.2C72.3 238.65 98.2 251.6 125.5 251.95H128.3C155.6 251.6 181.15 238.65 200.4 215.2C219.65 191.75 230.15 160.95 230.5 128.05H148.95ZM466.772 234.45C485.322 223.25 500.372 207.85 511.222 189.3L511.922 190C501.422 208.55 486.022 224.3 467.472 235.5C448.572 246.7 426.522 253 404.472 253H401.672C384.872 253 368.422 249.5 353.022 242.85C338.322 236.55 325.022 227.45 313.472 215.9C302.272 204.35 293.172 191.05 286.872 176C280.572 160.6 277.422 144.5 277.422 127.35C277.422 110.55 280.572 94.1 286.872 78.7C293.172 64 302.272 50.7 313.472 39.15C325.022 27.6 338.322 18.5 353.022 12.2C368.422 5.54999 384.872 2.05 401.672 1.69998H404.472C430.372 2.05 455.572 10.45 476.922 25.85C487.072 33.2 496.172 41.95 503.522 52.1C511.222 62.25 517.172 73.45 521.372 85.7L521.722 86.4H500.722V86.05C493.722 62.25 481.122 41.6 463.972 26.9C446.472 11.5 425.822 3.44998 404.472 3.09998H401.672C374.372 3.44998 348.472 16.4 329.222 39.85C309.972 63.3 299.122 94.45 299.122 127.35C299.122 160.6 309.972 191.75 329.222 215.2C348.472 238.3 374.372 251.6 401.672 251.95H404.122C426.522 251.6 447.872 245.65 466.772 234.45Z" fill="white"/>
<path d="M148.95 128.05H147.95V129.05H148.95V128.05ZM148.95 127V126H147.95V127H148.95ZM252.55 127H253.55V126H252.55V127ZM252.55 252.65V253.65H253.55V252.65H252.55ZM251.15 252.65H250.15V253.65H251.15V252.65ZM242.4 176.7L241.543 176.185L241.4 176.423V176.7H242.4ZM242.4 177.05L243.325 177.431L243.4 177.248V177.05H242.4ZM233.65 193.5L232.818 192.945L232.65 193.197V193.5H233.65ZM233.65 193.85L234.544 194.297L234.65 194.086V193.85H233.65ZM232.6 195.6L233.437 196.147L233.469 196.099L233.494 196.047L232.6 195.6ZM188.5 237.25L188.987 238.123L188.994 238.119L188.5 237.25ZM128.3 253.35V254.35H128.308L128.317 254.35L128.3 253.35ZM125.5 253.35L125.479 254.35L125.49 254.35H125.5V253.35ZM76.85 243.2L76.4378 244.111L76.4545 244.119L76.4714 244.126L76.85 243.2ZM37.3 215.9L36.5821 216.596L36.5875 216.602L36.5929 216.607L37.3 215.9ZM10.7 176.35L9.77445 176.729L9.77759 176.736L9.78086 176.744L10.7 176.35ZM10.7 79.05L9.77753 78.6638L9.77445 78.6714L10.7 79.05ZM37.3 39.15L36.5929 38.4429L36.5875 38.4483L36.5821 38.4539L37.3 39.15ZM76.85 12.2L77.2439 13.1191L77.2464 13.1181L76.85 12.2ZM200.75 25.85L201.337 25.04L201.335 25.039L200.75 25.85ZM227.35 52.1L228.156 51.5086L228.15 51.5L227.35 52.1ZM245.2 85.7L244.257 86.0328L244.278 86.0915L244.306 86.1472L245.2 85.7ZM245.55 86.4V87.4H247.168L246.444 85.9528L245.55 86.4ZM224.55 86.4H223.55V87.4H224.55V86.4ZM224.55 86.05H225.55V85.906L225.509 85.7678L224.55 86.05ZM187.8 26.9L187.139 27.6507L187.14 27.6516L187.8 26.9ZM127.95 3.09998L127.966 2.10011L127.958 2.09998H127.95V3.09998ZM125.5 3.09998V2.0999L125.487 2.10007L125.5 3.09998ZM53.05 40.2L52.2771 39.5655L52.2771 39.5655L53.05 40.2ZM53.05 215.2L53.8229 214.566L53.8229 214.566L53.05 215.2ZM125.5 251.95L125.487 252.95H125.5V251.95ZM128.3 251.95L128.3 252.95L128.313 252.95L128.3 251.95ZM200.4 215.2L201.173 215.834L201.173 215.834L200.4 215.2ZM230.5 128.05L231.5 128.061L231.511 127.05H230.5V128.05ZM148.95 128.05H149.95V127H148.95H147.95V128.05H148.95ZM148.95 127V128H252.55V127V126H148.95V127ZM252.55 127H251.55V252.65H252.55H253.55V127H252.55ZM252.55 252.65V251.65H251.15V252.65V253.65H252.55V252.65ZM251.15 252.65H252.15V178.8H251.15H250.15V252.65H251.15ZM251.15 178.8H252.15C252.15 175.798 249.602 173.25 246.6 173.25V174.25V175.25C248.498 175.25 250.15 176.902 250.15 178.8H251.15ZM246.6 174.25V173.25C245.588 173.25 244.625 173.454 243.747 173.947C242.87 174.441 242.14 175.19 241.543 176.185L242.4 176.7L243.258 177.214C243.71 176.46 244.205 175.984 244.728 175.69C245.25 175.396 245.862 175.25 246.6 175.25V174.25ZM242.4 176.7H241.4C241.4 176.701 241.4 176.701 241.4 176.702C241.4 176.703 241.4 176.703 241.4 176.704C241.4 176.705 241.4 176.705 241.4 176.706C241.4 176.707 241.4 176.707 241.4 176.708C241.4 176.709 241.4 176.709 241.4 176.71C241.4 176.711 241.4 176.711 241.4 176.712C241.4 176.713 241.4 176.713 241.4 176.714C241.4 176.715 241.4 176.715 241.4 176.716C241.4 176.717 241.4 176.717 241.4 176.718C241.4 176.719 241.4 176.719 241.4 176.72C241.4 176.721 241.4 176.721 241.4 176.722C241.4 176.723 241.4 176.723 241.4 176.724C241.4 176.725 241.4 176.725 241.4 176.726C241.4 176.727 241.4 176.727 241.4 176.728C241.4 176.729 241.4 176.729 241.4 176.73C241.4 176.731 241.4 176.731 241.4 176.732C241.4 176.732 241.4 176.733 241.4 176.734C241.4 176.734 241.4 176.735 241.4 176.736C241.4 176.736 241.4 176.737 241.4 176.738C241.4 176.738 241.4 176.739 241.4 176.739C241.4 176.74 241.4 176.741 241.4 176.741C241.4 176.742 241.4 176.743 241.4 176.743C241.4 176.744 241.4 176.744 241.4 176.745C241.4 176.746 241.4 176.746 241.4 176.747C241.4 176.748 241.4 176.748 241.4 176.749C241.4 176.749 241.4 176.75 241.4 176.751C241.4 176.751 241.4 176.752 241.4 176.752C241.4 176.753 241.4 176.754 241.4 176.754C241.4 176.755 241.4 176.756 241.4 176.756C241.4 176.757 241.4 176.757 241.4 176.758C241.4 176.759 241.4 176.759 241.4 176.76C241.4 176.76 241.4 176.761 241.4 176.762C241.4 176.762 241.4 176.763 241.4 176.763C241.4 176.764 241.4 176.765 241.4 176.765C241.4 176.766 241.4 176.766 241.4 176.767C241.4 176.768 241.4 176.768 241.4 176.769C241.4 176.769 241.4 176.77 241.4 176.771C241.4 176.771 241.4 176.772 241.4 176.772C241.4 176.773 241.4 176.773 241.4 176.774C241.4 176.775 241.4 176.775 241.4 176.776C241.4 176.776 241.4 176.777 241.4 176.778C241.4 176.778 241.4 176.779 241.4 176.779C241.4 176.78 241.4 176.78 241.4 176.781C241.4 176.782 241.4 176.782 241.4 176.783C241.4 176.783 241.4 176.784 241.4 176.784C241.4 176.785 241.4 176.786 241.4 176.786C241.4 176.787 241.4 176.787 241.4 176.788C241.4 176.788 241.4 176.789 241.4 176.789C241.4 176.79 241.4 176.791 241.4 176.791C241.4 176.792 241.4 176.792 241.4 176.793C241.4 176.793 241.4 176.794 241.4 176.795C241.4 176.795 241.4 176.796 241.4 176.796C241.4 176.797 241.4 176.797 241.4 176.798C241.4 176.798 241.4 176.799 241.4 176.799C241.4 176.8 241.4 176.801 241.4 176.801C241.4 176.802 241.4 176.802 241.4 176.803C241.4 176.803 241.4 176.804 241.4 176.804C241.4 176.805 241.4 176.805 241.4 176.806C241.4 176.807 241.4 176.807 241.4 176.808C241.4 176.808 241.4 176.809 241.4 176.809C241.4 176.81 241.4 176.81 241.4 176.811C241.4 176.811 241.4 176.812 241.4 176.812C241.4 176.813 241.4 176.813 241.4 176.814C241.4 176.814 241.4 176.815 241.4 176.816C241.4 176.816 241.4 176.817 241.4 176.817C241.4 176.818 241.4 176.818 241.4 176.819C241.4 176.819 241.4 176.82 241.4 176.82C241.4 176.821 241.4 176.821 241.4 176.822C241.4 176.822 241.4 176.823 241.4 176.823C241.4 176.824 241.4 176.824 241.4 176.825C241.4 176.825 241.4 176.826 241.4 176.826C241.4 176.827 241.4 176.827 241.4 176.828C241.4 176.828 241.4 176.829 241.4 176.829C241.4 176.83 241.4 176.83 241.4 176.831C241.4 176.831 241.4 176.832 241.4 176.832C241.4 176.833 241.4 176.833 241.4 176.834C241.4 176.834 241.4 176.835 241.4 176.835C241.4 176.836 241.4 176.836 241.4 176.837C241.4 176.837 241.4 176.838 241.4 176.838C241.4 176.839 241.4 176.839 241.4 176.84C241.4 176.84 241.4 176.841 241.4 176.841C241.4 176.842 241.4 176.842 241.4 176.843C241.4 176.843 241.4 176.844 241.4 176.844C241.4 176.845 241.4 176.845 241.4 176.846C241.4 176.846 241.4 176.847 241.4 176.847C241.4 176.847 241.4 176.848 241.4 176.848C241.4 176.849 241.4 176.849 241.4 176.85C241.4 176.85 241.4 176.851 241.4 176.851C241.4 176.852 241.4 176.852 241.4 176.853C241.4 176.853 241.4 176.854 241.4 176.854C241.4 176.854 241.4 176.855 241.4 176.855C241.4 176.856 241.4 176.856 241.4 176.857C241.4 176.857 241.4 176.858 241.4 176.858C241.4 176.859 241.4 176.859 241.4 176.86C241.4 176.86 241.4 176.86 241.4 176.861C241.4 176.861 241.4 176.862 241.4 176.862C241.4 176.863 241.4 176.863 241.4 176.864C241.4 176.864 241.4 176.865 241.4 176.865C241.4 176.865 241.4 176.866 241.4 176.866C241.4 176.867 241.4 176.867 241.4 176.868C241.4 176.868 241.4 176.869 241.4 176.869C241.4 176.869 241.4 176.87 241.4 176.87C241.4 176.871 241.4 176.871 241.4 176.872C241.4 176.872 241.4 176.872 241.4 176.873C241.4 176.873 241.4 176.874 241.4 176.874C241.4 176.875 241.4 176.875 241.4 176.875C241.4 176.876 241.4 176.876 241.4 176.877C241.4 176.877 241.4 176.878 241.4 176.878C241.4 176.878 241.4 176.879 241.4 176.879C241.4 176.88 241.4 176.88 241.4 176.881C241.4 176.881 241.4 176.881 241.4 176.882C241.4 176.882 241.4 176.883 241.4 176.883C241.4 176.884 241.4 176.884 241.4 176.884C241.4 176.885 241.4 176.885 241.4 176.886C241.4 176.886 241.4 176.886 241.4 176.887C241.4 176.887 241.4 176.888 241.4 176.888C241.4 176.888 241.4 176.889 241.4 176.889C241.4 176.89 241.4 176.89 241.4 176.891C241.4 176.891 241.4 176.891 241.4 176.892C241.4 176.892 241.4 176.893 241.4 176.893C241.4 176.893 241.4 176.894 241.4 176.894C241.4 176.895 241.4 176.895 241.4 176.895C241.4 176.896 241.4 176.896 241.4 176.896C241.4 176.897 241.4 176.897 241.4 176.898C241.4 176.898 241.4 176.898 241.4 176.899C241.4 176.899 241.4 176.9 241.4 176.9C241.4 176.9 241.4 176.901 241.4 176.901C241.4 176.902 241.4 176.902 241.4 176.902C241.4 176.903 241.4 176.903 241.4 176.903C241.4 176.904 241.4 176.904 241.4 176.905C241.4 176.905 241.4 176.905 241.4 176.906C241.4 176.906 241.4 176.907 241.4 176.907C241.4 176.907 241.4 176.908 241.4 176.908C241.4 176.908 241.4 176.909 241.4 176.909C241.4 176.91 241.4 176.91 241.4 176.91C241.4 176.911 241.4 176.911 241.4 176.911C241.4 176.912 241.4 176.912 241.4 176.912C241.4 176.913 241.4 176.913 241.4 176.914C241.4 176.914 241.4 176.914 241.4 176.915C241.4 176.915 241.4 176.915 241.4 176.916C241.4 176.916 241.4 176.916 241.4 176.917C241.4 176.917 241.4 176.918 241.4 176.918C241.4 176.918 241.4 176.919 241.4 176.919C241.4 176.919 241.4 176.92 241.4 176.92C241.4 176.92 241.4 176.921 241.4 176.921C241.4 176.921 241.4 176.922 241.4 176.922C241.4 176.922 241.4 176.923 241.4 176.923C241.4 176.924 241.4 176.924 241.4 176.924C241.4 176.925 241.4 176.925 241.4 176.925C241.4 176.926 241.4 176.926 241.4 176.926C241.4 176.927 241.4 176.927 241.4 176.927C241.4 176.928 241.4 176.928 241.4 176.928C241.4 176.929 241.4 176.929 241.4 176.929C241.4 176.93 241.4 176.93 241.4 176.93C241.4 176.931 241.4 176.931 241.4 176.931C241.4 176.932 241.4 176.932 241.4 176.932C241.4 176.933 241.4 176.933 241.4 176.933C241.4 176.934 241.4 176.934 241.4 176.934C241.4 176.935 241.4 176.935 241.4 176.935C241.4 176.936 241.4 176.936 241.4 176.936C241.4 176.937 241.4 176.937 241.4 176.937C241.4 176.938 241.4 176.938 241.4 176.938C241.4 176.939 241.4 176.939 241.4 176.939C241.4 176.939 241.4 176.94 241.4 176.94C241.4 176.94 241.4 176.941 241.4 176.941C241.4 176.941 241.4 176.942 241.4 176.942C241.4 176.942 241.4 176.943 241.4 176.943C241.4 176.943 241.4 176.944 241.4 176.944C241.4 176.944 241.4 176.944 241.4 176.945C241.4 176.945 241.4 176.945 241.4 176.946C241.4 176.946 241.4 176.946 241.4 176.947C241.4 176.947 241.4 176.947 241.4 176.948C241.4 176.948 241.4 176.948 241.4 176.948C241.4 176.949 241.4 176.949 241.4 176.949C241.4 176.95 241.4 176.95 241.4 176.95C241.4 176.95 241.4 176.951 241.4 176.951C241.4 176.951 241.4 176.952 241.4 176.952C241.4 176.952 241.4 176.953 241.4 176.953C241.4 176.953 241.4 176.953 241.4 176.954C241.4 176.954 241.4 176.954 241.4 176.955C241.4 176.955 241.4 176.955 241.4 176.955C241.4 176.956 241.4 176.956 241.4 176.956C241.4 176.957 241.4 176.957 241.4 176.957C241.4 176.957 241.4 176.958 241.4 176.958C241.4 176.958 241.4 176.959 241.4 176.959C241.4 176.959 241.4 176.959 241.4 176.96C241.4 176.96 241.4 176.96 241.4 176.96C241.4 176.961 241.4 176.961 241.4 176.961C241.4 176.962 241.4 176.962 241.4 176.962C241.4 176.962 241.4 176.963 241.4 176.963C241.4 176.963 241.4 176.963 241.4 176.964C241.4 176.964 241.4 176.964 241.4 176.965C241.4 176.965 241.4 176.965 241.4 176.965C241.4 176.966 241.4 176.966 241.4 176.966C241.4 176.966 241.4 176.967 241.4 176.967C241.4 176.967 241.4 176.967 241.4 176.968C241.4 176.968 241.4 176.968 241.4 176.968C241.4 176.969 241.4 176.969 241.4 176.969C241.4 176.97 241.4 176.97 241.4 176.97C241.4 176.97 241.4 176.971 241.4 176.971C241.4 176.971 241.4 176.971 241.4 176.972C241.4 176.972 241.4 176.972 241.4 176.972C241.4 176.973 241.4 176.973 241.4 176.973C241.4 176.973 241.4 176.974 241.4 176.974C241.4 176.974 241.4 176.974 241.4 176.975C241.4 176.975 241.4 176.975 241.4 176.975C241.4 176.976 241.4 176.976 241.4 176.976C241.4 176.976 241.4 176.976 241.4 176.977C241.4 176.977 241.4 176.977 241.4 176.977C241.4 176.978 241.4 176.978 241.4 176.978C241.4 176.978 241.4 176.979 241.4 176.979C241.4 176.979 241.4 176.979 241.4 176.98C241.4 176.98 241.4 176.98 241.4 176.98C241.4 176.981 241.4 176.981 241.4 176.981C241.4 176.981 241.4 176.981 241.4 176.982C241.4 176.982 241.4 176.982 241.4 176.982C241.4 176.983 241.4 176.983 241.4 176.983C241.4 176.983 241.4 176.984 241.4 176.984C241.4 176.984 241.4 176.984 241.4 176.984C241.4 176.985 241.4 176.985 241.4 176.985C241.4 176.985 241.4 176.986 241.4 176.986C241.4 176.986 241.4 176.986 241.4 176.986C241.4 176.987 241.4 176.987 241.4 176.987C241.4 176.987 241.4 176.987 241.4 176.988C241.4 176.988 241.4 176.988 241.4 176.988C241.4 176.989 241.4 176.989 241.4 176.989C241.4 176.989 241.4 176.989 241.4 176.99C241.4 176.99 241.4 176.99 241.4 176.99C241.4 176.99 241.4 176.991 241.4 176.991C241.4 176.991 241.4 176.991 241.4 176.992C241.4 176.992 241.4 176.992 241.4 176.992C241.4 176.992 241.4 176.993 241.4 176.993C241.4 176.993 241.4 176.993 241.4 176.993C241.4 176.994 241.4 176.994 241.4 176.994C241.4 176.994 241.4 176.994 241.4 176.995C241.4 176.995 241.4 176.995 241.4 176.995C241.4 176.995 241.4 176.996 241.4 176.996C241.4 176.996 241.4 176.996 241.4 176.996C241.4 176.997 241.4 176.997 241.4 176.997C241.4 176.997 241.4 176.997 241.4 176.998C241.4 176.998 241.4 176.998 241.4 176.998C241.4 176.998 241.4 176.998 241.4 176.999C241.4 176.999 241.4 176.999 241.4 176.999C241.4 176.999 241.4 177 241.4 177C241.4 177 241.4 177 241.4 177C241.4 177.001 241.4 177.001 241.4 177.001C241.4 177.001 241.4 177.001 241.4 177.001C241.4 177.002 241.4 177.002 241.4 177.002C241.4 177.002 241.4 177.002 241.4 177.003C241.4 177.003 241.4 177.003 241.4 177.003C241.4 177.003 241.4 177.003 241.4 177.004C241.4 177.004 241.4 177.004 241.4 177.004C241.4 177.004 241.4 177.005 241.4 177.005C241.4 177.005 241.4 177.005 241.4 177.005C241.4 177.005 241.4 177.006 241.4 177.006C241.4 177.006 241.4 177.006 241.4 177.006C241.4 177.006 241.4 177.007 241.4 177.007C241.4 177.007 241.4 177.007 241.4 177.007C241.4 177.007 241.4 177.008 241.4 177.008C241.4 177.008 241.4 177.008 241.4 177.008C241.4 177.008 241.4 177.009 241.4 177.009C241.4 177.009 241.4 177.009 241.4 177.009C241.4 177.009 241.4 177.01 241.4 177.01C241.4 177.01 241.4 177.01 241.4 177.01C241.4 177.01 241.4 177.011 241.4 177.011C241.4 177.011 241.4 177.011 241.4 177.011C241.4 177.011 241.4 177.011 241.4 177.012C241.4 177.012 241.4 177.012 241.4 177.012C241.4 177.012 241.4 177.012 241.4 177.013C241.4 177.013 241.4 177.013 241.4 177.013C241.4 177.013 241.4 177.013 241.4 177.013C241.4 177.014 241.4 177.014 241.4 177.014C241.4 177.014 241.4 177.014 241.4 177.014C241.4 177.015 241.4 177.015 241.4 177.015C241.4 177.015 241.4 177.015 241.4 177.015C241.4 177.015 241.4 177.016 241.4 177.016C241.4 177.016 241.4 177.016 241.4 177.016C241.4 177.016 241.4 177.016 241.4 177.017C241.4 177.017 241.4 177.017 241.4 177.017C241.4 177.017 241.4 177.017 241.4 177.017C241.4 177.018 241.4 177.018 241.4 177.018C241.4 177.018 241.4 177.018 241.4 177.018C241.4 177.018 241.4 177.019 241.4 177.019C241.4 177.019 241.4 177.019 241.4 177.019C241.4 177.019 241.4 177.019 241.4 177.019C241.4 177.02 241.4 177.02 241.4 177.02C241.4 177.02 241.4 177.02 241.4 177.02C241.4 177.02 241.4 177.021 241.4 177.021C241.4 177.021 241.4 177.021 241.4 177.021C241.4 177.021 241.4 177.021 241.4 177.021C241.4 177.022 241.4 177.022 241.4 177.022C241.4 177.022 241.4 177.022 241.4 177.022C241.4 177.022 241.4 177.022 241.4 177.023C241.4 177.023 241.4 177.023 241.4 177.023C241.4 177.023 241.4 177.023 241.4 177.023C241.4 177.023 241.4 177.024 241.4 177.024C241.4 177.024 241.4 177.024 241.4 177.024C241.4 177.024 241.4 177.024 241.4 177.024C241.4 177.025 241.4 177.025 241.4 177.025C241.4 177.025 241.4 177.025 241.4 177.025C241.4 177.025 241.4 177.025 241.4 177.026C241.4 177.026 241.4 177.026 241.4 177.026C241.4 177.026 241.4 177.026 241.4 177.026C241.4 177.026 241.4 177.026 241.4 177.027C241.4 177.027 241.4 177.027 241.4 177.027C241.4 177.027 241.4 177.027 241.4 177.027C241.4 177.027 241.4 177.027 241.4 177.028C241.4 177.028 241.4 177.028 241.4 177.028C241.4 177.028 241.4 177.028 241.4 177.028C241.4 177.028 241.4 177.028 241.4 177.029C241.4 177.029 241.4 177.029 241.4 177.029C241.4 177.029 241.4 177.029 241.4 177.029C241.4 177.029 241.4 177.029 241.4 177.029C241.4 177.03 241.4 177.03 241.4 177.03C241.4 177.03 241.4 177.03 241.4 177.03C241.4 177.03 241.4 177.03 241.4 177.03C241.4 177.03 241.4 177.031 241.4 177.031C241.4 177.031 241.4 177.031 241.4 177.031C241.4 177.031 241.4 177.031 241.4 177.031C241.4 177.031 241.4 177.031 241.4 177.032C241.4 177.032 241.4 177.032 241.4 177.032C241.4 177.032 241.4 177.032 241.4 177.032C241.4 177.032 241.4 177.032 241.4 177.032C241.4 177.032 241.4 177.033 241.4 177.033C241.4 177.033 241.4 177.033 241.4 177.033C241.4 177.033 241.4 177.033 241.4 177.033C241.4 177.033 241.4 177.033 241.4 177.033C241.4 177.034 241.4 177.034 241.4 177.034C241.4 177.034 241.4 177.034 241.4 177.034C241.4 177.034 241.4 177.034 241.4 177.034C241.4 177.034 241.4 177.034 241.4 177.035C241.4 177.035 241.4 177.035 241.4 177.035C241.4 177.035 241.4 177.035 241.4 177.035C241.4 177.035 241.4 177.035 241.4 177.035C241.4 177.035 241.4 177.035 241.4 177.036C241.4 177.036 241.4 177.036 241.4 177.036C241.4 177.036 241.4 177.036 241.4 177.036C241.4 177.036 241.4 177.036 241.4 177.036C241.4 177.036 241.4 177.036 241.4 177.036C241.4 177.037 241.4 177.037 241.4 177.037C241.4 177.037 241.4 177.037 241.4 177.037C241.4 177.037 241.4 177.037 241.4 177.037C241.4 177.037 241.4 177.037 241.4 177.037C241.4 177.037 241.4 177.038 241.4 177.038C241.4 177.038 241.4 177.038 241.4 177.038C241.4 177.038 241.4 177.038 241.4 177.038C241.4 177.038 241.4 177.038 241.4 177.038C241.4 177.038 241.4 177.038 241.4 177.038C241.4 177.039 241.4 177.039 241.4 177.039C241.4 177.039 241.4 177.039 241.4 177.039C241.4 177.039 241.4 177.039 241.4 177.039C241.4 177.039 241.4 177.039 241.4 177.039C241.4 177.039 241.4 177.039 241.4 177.04C241.4 177.04 241.4 177.04 241.4 177.04C241.4 177.04 241.4 177.04 241.4 177.04C241.4 177.04 241.4 177.04 241.4 177.04C241.4 177.04 241.4 177.04 241.4 177.04C241.4 177.04 241.4 177.04 241.4 177.04C241.4 177.041 241.4 177.041 241.4 177.041C241.4 177.041 241.4 177.041 241.4 177.041C241.4 177.041 241.4 177.041 241.4 177.041C241.4 177.041 241.4 177.041 241.4 177.041C241.4 177.041 241.4 177.041 241.4 177.041C241.4 177.041 241.4 177.041 241.4 177.042C241.4 177.042 241.4 177.042 241.4 177.042C241.4 177.042 241.4 177.042 241.4 177.042C241.4 177.042 241.4 177.042 241.4 177.042C241.4 177.042 241.4 177.042 241.4 177.042C241.4 177.042 241.4 177.042 241.4 177.042C241.4 177.042 241.4 177.042 241.4 177.043C241.4 177.043 241.4 177.043 241.4 177.043C241.4 177.043 241.4 177.043 241.4 177.043C241.4 177.043 241.4 177.043 241.4 177.043C241.4 177.043 241.4 177.043 241.4 177.043C241.4 177.043 241.4 177.043 241.4 177.043C241.4 177.043 241.4 177.043 241.4 177.043C241.4 177.043 241.4 177.044 241.4 177.044C241.4 177.044 241.4 177.044 241.4 177.044C241.4 177.044 241.4 177.044 241.4 177.044C241.4 177.044 241.4 177.044 241.4 177.044C241.4 177.044 241.4 177.044 241.4 177.044C241.4 177.044 241.4 177.044 241.4 177.044C241.4 177.044 241.4 177.044 241.4 177.044C241.4 177.044 241.4 177.044 241.4 177.045C241.4 177.045 241.4 177.045 241.4 177.045C241.4 177.045 241.4 177.045 241.4 177.045C241.4 177.045 241.4 177.045 241.4 177.045C241.4 177.045 241.4 177.045 241.4 177.045C241.4 177.045 241.4 177.045 241.4 177.045C241.4 177.045 241.4 177.045 241.4 177.045C241.4 177.045 241.4 177.045 241.4 177.045C241.4 177.045 241.4 177.045 241.4 177.045C241.4 177.046 241.4 177.046 241.4 177.046C241.4 177.046 241.4 177.046 241.4 177.046C241.4 177.046 241.4 177.046 241.4 177.046C241.4 177.046 241.4 177.046 241.4 177.046C241.4 177.046 241.4 177.046 241.4 177.046C241.4 177.046 241.4 177.046 241.4 177.046C241.4 177.046 241.4 177.046 241.4 177.046C241.4 177.046 241.4 177.046 241.4 177.046C241.4 177.046 241.4 177.046 241.4 177.046C241.4 177.046 241.4 177.046 241.4 177.047C241.4 177.047 241.4 177.047 241.4 177.047C241.4 177.047 241.4 177.047 241.4 177.047C241.4 177.047 241.4 177.047 241.4 177.047C241.4 177.047 241.4 177.047 241.4 177.047C241.4 177.047 241.4 177.047 241.4 177.047C241.4 177.047 241.4 177.047 241.4 177.047C241.4 177.047 241.4 177.047 241.4 177.047C241.4 177.047 241.4 177.047 241.4 177.047C241.4 177.047 241.4 177.047 241.4 177.047C241.4 177.047 241.4 177.047 241.4 177.047C241.4 177.047 241.4 177.047 241.4 177.047C241.4 177.047 241.4 177.048 241.4 177.048C241.4 177.048 241.4 177.048 241.4 177.048C241.4 177.048 241.4 177.048 241.4 177.048C241.4 177.048 241.4 177.048 241.4 177.048C241.4 177.048 241.4 177.048 241.4 177.048C241.4 177.048 241.4 177.048 241.4 177.048C241.4 177.048 241.4 177.048 241.4 177.048C241.4 177.048 241.4 177.048 241.4 177.048C241.4 177.048 241.4 177.048 241.4 177.048C241.4 177.048 241.4 177.048 241.4 177.048C241.4 177.048 241.4 177.048 241.4 177.048C241.4 177.048 241.4 177.048 241.4 177.048C241.4 177.048 241.4 177.048 241.4 177.048C241.4 177.048 241.4 177.048 241.4 177.048C241.4 177.048 241.4 177.048 241.4 177.048C241.4 177.048 241.4 177.048 241.4 177.049C241.4 177.049 241.4 177.049 241.4 177.049C241.4 177.049 241.4 177.049 241.4 177.049C241.4 177.049 241.4 177.049 241.4 177.049C241.4 177.049 241.4 177.049 241.4 177.049C241.4 177.049 241.4 177.049 241.4 177.049C241.4 177.049 241.4 177.049 241.4 177.049C241.4 177.049 241.4 177.049 241.4 177.049C241.4 177.049 241.4 177.049 241.4 177.049C241.4 177.049 241.4 177.049 241.4 177.049C241.4 177.049 241.4 177.049 241.4 177.049C241.4 177.049 241.4 177.049 241.4 177.049C241.4 177.049 241.4 177.049 241.4 177.049C241.4 177.049 241.4 177.049 241.4 177.049C241.4 177.049 241.4 177.049 241.4 177.049C241.4 177.049 241.4 177.049 241.4 177.049C241.4 177.049 241.4 177.049 241.4 177.049C241.4 177.049 241.4 177.049 241.4 177.049C241.4 177.049 241.4 177.049 241.4 177.049C241.4 177.049 241.4 177.049 241.4 177.049C241.4 177.049 241.4 177.049 241.4 177.049C241.4 177.049 241.4 177.049 241.4 177.049C241.4 177.049 241.4 177.049 241.4 177.049C241.4 177.049 241.4 177.049 241.4 177.049C241.4 177.049 241.4 177.049 241.4 177.049C241.4 177.049 241.4 177.049 241.4 177.049C241.4 177.049 241.4 177.05 241.4 177.05C241.4 177.05 241.4 177.05 241.4 177.05C241.4 177.05 241.4 177.05 241.4 177.05C241.4 177.05 241.4 177.05 241.4 177.05C241.4 177.05 241.4 177.05 241.4 177.05C241.4 177.05 241.4 177.05 241.4 177.05C241.4 177.05 241.4 177.05 241.4 177.05C241.4 177.05 241.4 177.05 241.4 177.05C241.4 177.05 241.4 177.05 241.4 177.05C241.4 177.05 241.4 177.05 241.4 177.05C241.4 177.05 241.4 177.05 241.4 177.05C241.4 177.05 241.4 177.05 241.4 177.05C241.4 177.05 241.4 177.05 241.4 177.05C241.4 177.05 241.4 177.05 241.4 177.05C241.4 177.05 241.4 177.05 241.4 177.05C241.4 177.05 241.4 177.05 241.4 177.05C241.4 177.05 241.4 177.05 241.4 177.05C241.4 177.05 241.4 177.05 241.4 177.05C241.4 177.05 241.4 177.05 241.4 177.05C241.4 177.05 241.4 177.05 241.4 177.05C241.4 177.05 241.4 177.05 241.4 177.05C241.4 177.05 241.4 177.05 241.4 177.05C241.4 177.05 241.4 177.05 241.4 177.05C241.4 177.05 241.4 177.05 241.4 177.05C241.4 177.05 241.4 177.05 241.4 177.05C241.4 177.05 241.4 177.05 241.4 177.05C241.4 177.05 241.4 177.05 241.4 177.05C241.4 177.05 241.4 177.05 241.4 177.05C241.4 177.05 241.4 177.05 241.4 177.05C241.4 177.05 241.4 177.05 241.4 177.05C241.4 177.05 241.4 177.05 241.4 177.05C241.4 177.05 241.4 177.05 241.4 177.05C241.4 177.05 241.4 177.05 241.4 177.05C241.4 177.05 241.4 177.05 241.4 177.05C241.4 177.05 241.4 177.05 241.4 177.05C241.4 177.05 241.4 177.05 241.4 177.05C241.4 177.05 241.4 177.05 241.4 177.05C241.4 177.05 241.4 177.05 241.4 177.05C241.4 177.05 241.4 177.05 241.4 177.05C241.4 177.05 241.4 177.05 241.4 177.05C241.4 177.05 241.4 177.05 241.4 177.05C241.4 177.05 241.4 177.05 241.4 177.05C241.4 177.05 241.4 177.05 241.4 177.05C241.4 177.05 241.4 177.05 241.4 177.05C241.4 177.05 241.4 177.05 241.4 177.05C241.4 177.05 241.4 177.05 241.4 177.05C241.4 177.05 241.4 177.05 241.4 177.05C241.4 177.05 241.4 177.05 241.4 177.05C241.4 177.05 241.4 177.05 241.4 177.05C241.4 177.05 241.4 177.05 241.4 177.05C241.4 177.05 241.4 177.05 241.4 177.05C241.4 177.05 241.4 177.05 241.4 177.05C241.4 177.05 241.4 177.05 241.4 177.05C241.4 177.05 241.4 177.05 241.4 177.05C241.4 177.05 241.4 177.05 241.4 177.05C241.4 177.05 241.4 177.05 241.4 177.05C241.4 177.05 241.4 177.05 241.4 177.05C241.4 177.05 242.4 177.05 242.4 177.05C242.4 177.05 243.4 177.05 243.4 177.05C243.4 177.05 243.4 177.05 243.4 177.05C243.4 177.05 243.4 177.05 243.4 177.05C243.4 177.05 243.4 177.05 243.4 177.05C243.4 177.05 243.4 177.05 243.4 177.05C243.4 177.05 243.4 177.05 243.4 177.05C243.4 177.05 243.4 177.05 243.4 177.05C243.4 177.05 243.4 177.05 243.4 177.05C243.4 177.05 243.4 177.05 243.4 177.05C243.4 177.05 243.4 177.05 243.4 177.05C243.4 177.05 243.4 177.05 243.4 177.05C243.4 177.05 243.4 177.05 243.4 177.05C243.4 177.05 243.4 177.05 243.4 177.05C243.4 177.05 243.4 177.05 243.4 177.05C243.4 177.05 243.4 177.05 243.4 177.05C243.4 177.05 243.4 177.05 243.4 177.05C243.4 177.05 243.4 177.05 243.4 177.05C243.4 177.05 243.4 177.05 243.4 177.05C243.4 177.05 243.4 177.05 243.4 177.05C243.4 177.05 243.4 177.05 243.4 177.05C243.4 177.05 243.4 177.05 243.4 177.05C243.4 177.05 243.4 177.05 243.4 177.05C243.4 177.05 243.4 177.05 243.4 177.05C243.4 177.05 243.4 177.05 243.4 177.05C243.4 177.05 243.4 177.05 243.4 177.05C243.4 177.05 243.4 177.05 243.4 177.05C243.4 177.05 243.4 177.05 243.4 177.05C243.4 177.05 243.4 177.05 243.4 177.05C243.4 177.05 243.4 177.05 243.4 177.05C243.4 177.05 243.4 177.05 243.4 177.05C243.4 177.05 243.4 177.05 243.4 177.05C243.4 177.05 243.4 177.05 243.4 177.05C243.4 177.05 243.4 177.05 243.4 177.05C243.4 177.05 243.4 177.05 243.4 177.05C243.4 177.05 243.4 177.05 243.4 177.05C243.4 177.05 243.4 177.05 243.4 177.05C243.4 177.05 243.4 177.05 243.4 177.05C243.4 177.05 243.4 177.05 243.4 177.05C243.4 177.05 243.4 177.05 243.4 177.05C243.4 177.05 243.4 177.05 243.4 177.05C243.4 177.05 243.4 177.05 243.4 177.05C243.4 177.05 243.4 177.05 243.4 177.05C243.4 177.05 243.4 177.05 243.4 177.05C243.4 177.05 243.4 177.05 243.4 177.05C243.4 177.05 243.4 177.05 243.4 177.05C243.4 177.05 243.4 177.05 243.4 177.05C243.4 177.05 243.4 177.05 243.4 177.05C243.4 177.05 243.4 177.05 243.4 177.05C243.4 177.05 243.4 177.05 243.4 177.05C243.4 177.05 243.4 177.05 243.4 177.05C243.4 177.05 243.4 177.05 243.4 177.05C243.4 177.05 243.4 177.05 243.4 177.05C243.4 177.05 243.4 177.05 243.4 177.05C243.4 177.05 243.4 177.05 243.4 177.05C243.4 177.05 243.4 177.05 243.4 177.05C243.4 177.05 243.4 177.05 243.4 177.05C243.4 177.05 243.4 177.05 243.4 177.05C243.4 177.05 243.4 177.049 243.4 177.049C243.4 177.049 243.4 177.049 243.4 177.049C243.4 177.049 243.4 177.049 243.4 177.049C243.4 177.049 243.4 177.049 243.4 177.049C243.4 177.049 243.4 177.049 243.4 177.049C243.4 177.049 243.4 177.049 243.4 177.049C243.4 177.049 243.4 177.049 243.4 177.049C243.4 177.049 243.4 177.049 243.4 177.049C243.4 177.049 243.4 177.049 243.4 177.049C243.4 177.049 243.4 177.049 243.4 177.049C243.4 177.049 243.4 177.049 243.4 177.049C243.4 177.049 243.4 177.049 243.4 177.049C243.4 177.049 243.4 177.049 243.4 177.049C243.4 177.049 243.4 177.049 243.4 177.049C243.4 177.049 243.4 177.049 243.4 177.049C243.4 177.049 243.4 177.049 243.4 177.049C243.4 177.049 243.4 177.049 243.4 177.049C243.4 177.049 243.4 177.049 243.4 177.049C243.4 177.049 243.4 177.049 243.4 177.049C243.4 177.049 243.4 177.049 243.4 177.049C243.4 177.049 243.4 177.049 243.4 177.049C243.4 177.049 243.4 177.049 243.4 177.049C243.4 177.049 243.4 177.049 243.4 177.049C243.4 177.049 243.4 177.049 243.4 177.049C243.4 177.049 243.4 177.049 243.4 177.049C243.4 177.049 243.4 177.049 243.4 177.049C243.4 177.048 243.4 177.048 243.4 177.048C243.4 177.048 243.4 177.048 243.4 177.048C243.4 177.048 243.4 177.048 243.4 177.048C243.4 177.048 243.4 177.048 243.4 177.048C243.4 177.048 243.4 177.048 243.4 177.048C243.4 177.048 243.4 177.048 243.4 177.048C243.4 177.048 243.4 177.048 243.4 177.048C243.4 177.048 243.4 177.048 243.4 177.048C243.4 177.048 243.4 177.048 243.4 177.048C243.4 177.048 243.4 177.048 243.4 177.048C243.4 177.048 243.4 177.048 243.4 177.048C243.4 177.048 243.4 177.048 243.4 177.048C243.4 177.048 243.4 177.048 243.4 177.048C243.4 177.048 243.4 177.048 243.4 177.048C243.4 177.048 243.4 177.048 243.4 177.048C243.4 177.048 243.4 177.047 243.4 177.047C243.4 177.047 243.4 177.047 243.4 177.047C243.4 177.047 243.4 177.047 243.4 177.047C243.4 177.047 243.4 177.047 243.4 177.047C243.4 177.047 243.4 177.047 243.4 177.047C243.4 177.047 243.4 177.047 243.4 177.047C243.4 177.047 243.4 177.047 243.4 177.047C243.4 177.047 243.4 177.047 243.4 177.047C243.4 177.047 243.4 177.047 243.4 177.047C243.4 177.047 243.4 177.047 243.4 177.047C243.4 177.047 243.4 177.047 243.4 177.047C243.4 177.047 243.4 177.047 243.4 177.047C243.4 177.046 243.4 177.046 243.4 177.046C243.4 177.046 243.4 177.046 243.4 177.046C243.4 177.046 243.4 177.046 243.4 177.046C243.4 177.046 243.4 177.046 243.4 177.046C243.4 177.046 243.4 177.046 243.4 177.046C243.4 177.046 243.4 177.046 243.4 177.046C243.4 177.046 243.4 177.046 243.4 177.046C243.4 177.046 243.4 177.046 243.4 177.046C243.4 177.046 243.4 177.046 243.4 177.046C243.4 177.046 243.4 177.046 243.4 177.045C243.4 177.045 243.4 177.045 243.4 177.045C243.4 177.045 243.4 177.045 243.4 177.045C243.4 177.045 243.4 177.045 243.4 177.045C243.4 177.045 243.4 177.045 243.4 177.045C243.4 177.045 243.4 177.045 243.4 177.045C243.4 177.045 243.4 177.045 243.4 177.045C243.4 177.045 243.4 177.045 243.4 177.045C243.4 177.045 243.4 177.045 243.4 177.045C243.4 177.044 243.4 177.044 243.4 177.044C243.4 177.044 243.4 177.044 243.4 177.044C243.4 177.044 243.4 177.044 243.4 177.044C243.4 177.044 243.4 177.044 243.4 177.044C243.4 177.044 243.4 177.044 243.4 177.044C243.4 177.044 243.4 177.044 243.4 177.044C243.4 177.044 243.4 177.044 243.4 177.044C243.4 177.044 243.4 177.043 243.4 177.043C243.4 177.043 243.4 177.043 243.4 177.043C243.4 177.043 243.4 177.043 243.4 177.043C243.4 177.043 243.4 177.043 243.4 177.043C243.4 177.043 243.4 177.043 243.4 177.043C243.4 177.043 243.4 177.043 243.4 177.043C243.4 177.043 243.4 177.043 243.4 177.043C243.4 177.042 243.4 177.042 243.4 177.042C243.4 177.042 243.4 177.042 243.4 177.042C243.4 177.042 243.4 177.042 243.4 177.042C243.4 177.042 243.4 177.042 243.4 177.042C243.4 177.042 243.4 177.042 243.4 177.042C243.4 177.042 243.4 177.042 243.4 177.042C243.4 177.041 243.4 177.041 243.4 177.041C243.4 177.041 243.4 177.041 243.4 177.041C243.4 177.041 243.4 177.041 243.4 177.041C243.4 177.041 243.4 177.041 243.4 177.041C243.4 177.041 243.4 177.041 243.4 177.041C243.4 177.041 243.4 177.041 243.4 177.04C243.4 177.04 243.4 177.04 243.4 177.04C243.4 177.04 243.4 177.04 243.4 177.04C243.4 177.04 243.4 177.04 243.4 177.04C243.4 177.04 243.4 177.04 243.4 177.04C243.4 177.04 243.4 177.04 243.4 177.04C243.4 177.039 243.4 177.039 243.4 177.039C243.4 177.039 243.4 177.039 243.4 177.039C243.4 177.039 243.4 177.039 243.4 177.039C243.4 177.039 243.4 177.039 243.4 177.039C243.4 177.039 243.4 177.039 243.4 177.038C243.4 177.038 243.4 177.038 243.4 177.038C243.4 177.038 243.4 177.038 243.4 177.038C243.4 177.038 243.4 177.038 243.4 177.038C243.4 177.038 243.4 177.038 243.4 177.038C243.4 177.038 243.4 177.037 243.4 177.037C243.4 177.037 243.4 177.037 243.4 177.037C243.4 177.037 243.4 177.037 243.4 177.037C243.4 177.037 243.4 177.037 243.4 177.037C243.4 177.037 243.4 177.037 243.4 177.036C243.4 177.036 243.4 177.036 243.4 177.036C243.4 177.036 243.4 177.036 243.4 177.036C243.4 177.036 243.4 177.036 243.4 177.036C243.4 177.036 243.4 177.036 243.4 177.036C243.4 177.035 243.4 177.035 243.4 177.035C243.4 177.035 243.4 177.035 243.4 177.035C243.4 177.035 243.4 177.035 243.4 177.035C243.4 177.035 243.4 177.035 243.4 177.035C243.4 177.034 243.4 177.034 243.4 177.034C243.4 177.034 243.4 177.034 243.4 177.034C243.4 177.034 243.4 177.034 243.4 177.034C243.4 177.034 243.4 177.034 243.4 177.033C243.4 177.033 243.4 177.033 243.4 177.033C243.4 177.033 243.4 177.033 243.4 177.033C243.4 177.033 243.4 177.033 243.4 177.033C243.4 177.033 243.4 177.032 243.4 177.032C243.4 177.032 243.4 177.032 243.4 177.032C243.4 177.032 243.4 177.032 243.4 177.032C243.4 177.032 243.4 177.032 243.4 177.032C243.4 177.031 243.4 177.031 243.4 177.031C243.4 177.031 243.4 177.031 243.4 177.031C243.4 177.031 243.4 177.031 243.4 177.031C243.4 177.031 243.4 177.03 243.4 177.03C243.4 177.03 243.4 177.03 243.4 177.03C243.4 177.03 243.4 177.03 243.4 177.03C243.4 177.03 243.4 177.03 243.4 177.029C243.4 177.029 243.4 177.029 243.4 177.029C243.4 177.029 243.4 177.029 243.4 177.029C243.4 177.029 243.4 177.029 243.4 177.029C243.4 177.028 243.4 177.028 243.4 177.028C243.4 177.028 243.4 177.028 243.4 177.028C243.4 177.028 243.4 177.028 243.4 177.028C243.4 177.027 243.4 177.027 243.4 177.027C243.4 177.027 243.4 177.027 243.4 177.027C243.4 177.027 243.4 177.027 243.4 177.027C243.4 177.026 243.4 177.026 243.4 177.026C243.4 177.026 243.4 177.026 243.4 177.026C243.4 177.026 243.4 177.026 243.4 177.026C243.4 177.025 243.4 177.025 243.4 177.025C243.4 177.025 243.4 177.025 243.4 177.025C243.4 177.025 243.4 177.025 243.4 177.024C243.4 177.024 243.4 177.024 243.4 177.024C243.4 177.024 243.4 177.024 243.4 177.024C243.4 177.024 243.4 177.023 243.4 177.023C243.4 177.023 243.4 177.023 243.4 177.023C243.4 177.023 243.4 177.023 243.4 177.023C243.4 177.022 243.4 177.022 243.4 177.022C243.4 177.022 243.4 177.022 243.4 177.022C243.4 177.022 243.4 177.022 243.4 177.021C243.4 177.021 243.4 177.021 243.4 177.021C243.4 177.021 243.4 177.021 243.4 177.021C243.4 177.021 243.4 177.02 243.4 177.02C243.4 177.02 243.4 177.02 243.4 177.02C243.4 177.02 243.4 177.02 243.4 177.019C243.4 177.019 243.4 177.019 243.4 177.019C243.4 177.019 243.4 177.019 243.4 177.019C243.4 177.019 243.4 177.018 243.4 177.018C243.4 177.018 243.4 177.018 243.4 177.018C243.4 177.018 243.4 177.018 243.4 177.017C243.4 177.017 243.4 177.017 243.4 177.017C243.4 177.017 243.4 177.017 243.4 177.017C243.4 177.016 243.4 177.016 243.4 177.016C243.4 177.016 243.4 177.016 243.4 177.016C243.4 177.016 243.4 177.015 243.4 177.015C243.4 177.015 243.4 177.015 243.4 177.015C243.4 177.015 243.4 177.015 243.4 177.014C243.4 177.014 243.4 177.014 243.4 177.014C243.4 177.014 243.4 177.014 243.4 177.013C243.4 177.013 243.4 177.013 243.4 177.013C243.4 177.013 243.4 177.013 243.4 177.013C243.4 177.012 243.4 177.012 243.4 177.012C243.4 177.012 243.4 177.012 243.4 177.012C243.4 177.011 243.4 177.011 243.4 177.011C243.4 177.011 243.4 177.011 243.4 177.011C243.4 177.011 243.4 177.01 243.4 177.01C243.4 177.01 243.4 177.01 243.4 177.01C243.4 177.01 243.4 177.009 243.4 177.009C243.4 177.009 243.4 177.009 243.4 177.009C243.4 177.009 243.4 177.008 243.4 177.008C243.4 177.008 243.4 177.008 243.4 177.008C243.4 177.008 243.4 177.007 243.4 177.007C243.4 177.007 243.4 177.007 243.4 177.007C243.4 177.007 243.4 177.006 243.4 177.006C243.4 177.006 243.4 177.006 243.4 177.006C243.4 177.006 243.4 177.005 243.4 177.005C243.4 177.005 243.4 177.005 243.4 177.005C243.4 177.005 243.4 177.004 243.4 177.004C243.4 177.004 243.4 177.004 243.4 177.004C243.4 177.003 243.4 177.003 243.4 177.003C243.4 177.003 243.4 177.003 243.4 177.003C243.4 177.002 243.4 177.002 243.4 177.002C243.4 177.002 243.4 177.002 243.4 177.001C243.4 177.001 243.4 177.001 243.4 177.001C243.4 177.001 243.4 177.001 243.4 177C243.4 177 243.4 177 243.4 177C243.4 177 243.4 176.999 243.4 176.999C243.4 176.999 243.4 176.999 243.4 176.999C243.4 176.998 243.4 176.998 243.4 176.998C243.4 176.998 243.4 176.998 243.4 176.998C243.4 176.997 243.4 176.997 243.4 176.997C243.4 176.997 243.4 176.997 243.4 176.996C243.4 176.996 243.4 176.996 243.4 176.996C243.4 176.996 243.4 176.995 243.4 176.995C243.4 176.995 243.4 176.995 243.4 176.995C243.4 176.994 243.4 176.994 243.4 176.994C243.4 176.994 243.4 176.994 243.4 176.993C243.4 176.993 243.4 176.993 243.4 176.993C243.4 176.993 243.4 176.992 243.4 176.992C243.4 176.992 243.4 176.992 243.4 176.992C243.4 176.991 243.4 176.991 243.4 176.991C243.4 176.991 243.4 176.99 243.4 176.99C243.4 176.99 243.4 176.99 243.4 176.99C243.4 176.989 243.4 176.989 243.4 176.989C243.4 176.989 243.4 176.989 243.4 176.988C243.4 176.988 243.4 176.988 243.4 176.988C243.4 176.987 243.4 176.987 243.4 176.987C243.4 176.987 243.4 176.987 243.4 176.986C243.4 176.986 243.4 176.986 243.4 176.986C243.4 176.986 243.4 176.985 243.4 176.985C243.4 176.985 243.4 176.985 243.4 176.984C243.4 176.984 243.4 176.984 243.4 176.984C243.4 176.984 243.4 176.983 243.4 176.983C243.4 176.983 243.4 176.983 243.4 176.982C243.4 176.982 243.4 176.982 243.4 176.982C243.4 176.981 243.4 176.981 243.4 176.981C243.4 176.981 243.4 176.981 243.4 176.98C243.4 176.98 243.4 176.98 243.4 176.98C243.4 176.979 243.4 176.979 243.4 176.979C243.4 176.979 243.4 176.978 243.4 176.978C243.4 176.978 243.4 176.978 243.4 176.977C243.4 176.977 243.4 176.977 243.4 176.977C243.4 176.976 243.4 176.976 243.4 176.976C243.4 176.976 243.4 176.976 243.4 176.975C243.4 176.975 243.4 176.975 243.4 176.975C243.4 176.974 243.4 176.974 243.4 176.974C243.4 176.974 243.4 176.973 243.4 176.973C243.4 176.973 243.4 176.973 243.4 176.972C243.4 176.972 243.4 176.972 243.4 176.972C243.4 176.971 243.4 176.971 243.4 176.971C243.4 176.971 243.4 176.97 243.4 176.97C243.4 176.97 243.4 176.97 243.4 176.969C243.4 176.969 243.4 176.969 243.4 176.968C243.4 176.968 243.4 176.968 243.4 176.968C243.4 176.967 243.4 176.967 243.4 176.967C243.4 176.967 243.4 176.966 243.4 176.966C243.4 176.966 243.4 176.966 243.4 176.965C243.4 176.965 243.4 176.965 243.4 176.965C243.4 176.964 243.4 176.964 243.4 176.964C243.4 176.963 243.4 176.963 243.4 176.963C243.4 176.963 243.4 176.962 243.4 176.962C243.4 176.962 243.4 176.962 243.4 176.961C243.4 176.961 243.4 176.961 243.4 176.96C243.4 176.96 243.4 176.96 243.4 176.96C243.4 176.959 243.4 176.959 243.4 176.959C243.4 176.959 243.4 176.958 243.4 176.958C243.4 176.958 243.4 176.957 243.4 176.957C243.4 176.957 243.4 176.957 243.4 176.956C243.4 176.956 243.4 176.956 243.4 176.955C243.4 176.955 243.4 176.955 243.4 176.955C243.4 176.954 243.4 176.954 243.4 176.954C243.4 176.953 243.4 176.953 243.4 176.953C243.4 176.953 243.4 176.952 243.4 176.952C243.4 176.952 243.4 176.951 243.4 176.951C243.4 176.951 243.4 176.95 243.4 176.95C243.4 176.95 243.4 176.95 243.4 176.949C243.4 176.949 243.4 176.949 243.4 176.948C243.4 176.948 243.4 176.948 243.4 176.948C243.4 176.947 243.4 176.947 243.4 176.947C243.4 176.946 243.4 176.946 243.4 176.946C243.4 176.945 243.4 176.945 243.4 176.945C243.4 176.944 243.4 176.944 243.4 176.944C243.4 176.944 243.4 176.943 243.4 176.943C243.4 176.943 243.4 176.942 243.4 176.942C243.4 176.942 243.4 176.941 243.4 176.941C243.4 176.941 243.4 176.94 243.4 176.94C243.4 176.94 243.4 176.939 243.4 176.939C243.4 176.939 243.4 176.939 243.4 176.938C243.4 176.938 243.4 176.938 243.4 176.937C243.4 176.937 243.4 176.937 243.4 176.936C243.4 176.936 243.4 176.936 243.4 176.935C243.4 176.935 243.4 176.935 243.4 176.934C243.4 176.934 243.4 176.934 243.4 176.933C243.4 176.933 243.4 176.933 243.4 176.932C243.4 176.932 243.4 176.932 243.4 176.931C243.4 176.931 243.4 176.931 243.4 176.93C243.4 176.93 243.4 176.93 243.4 176.929C243.4 176.929 243.4 176.929 243.4 176.928C243.4 176.928 243.4 176.928 243.4 176.927C243.4 176.927 243.4 176.927 243.4 176.926C243.4 176.926 243.4 176.926 243.4 176.925C243.4 176.925 243.4 176.925 243.4 176.924C243.4 176.924 243.4 176.924 243.4 176.923C243.4 176.923 243.4 176.922 243.4 176.922C243.4 176.922 243.4 176.921 243.4 176.921C243.4 176.921 243.4 176.92 243.4 176.92C243.4 176.92 243.4 176.919 243.4 176.919C243.4 176.919 243.4 176.918 243.4 176.918C243.4 176.918 243.4 176.917 243.4 176.917C243.4 176.916 243.4 176.916 243.4 176.916C243.4 176.915 243.4 176.915 243.4 176.915C243.4 176.914 243.4 176.914 243.4 176.914C243.4 176.913 243.4 176.913 243.4 176.912C243.4 176.912 243.4 176.912 243.4 176.911C243.4 176.911 243.4 176.911 243.4 176.91C243.4 176.91 243.4 176.91 243.4 176.909C243.4 176.909 243.4 176.908 243.4 176.908C243.4 176.908 243.4 176.907 243.4 176.907C243.4 176.907 243.4 176.906 243.4 176.906C243.4 176.905 243.4 176.905 243.4 176.905C243.4 176.904 243.4 176.904 243.4 176.903C243.4 176.903 243.4 176.903 243.4 176.902C243.4 176.902 243.4 176.902 243.4 176.901C243.4 176.901 243.4 176.9 243.4 176.9C243.4 176.9 243.4 176.899 243.4 176.899C243.4 176.898 243.4 176.898 243.4 176.898C243.4 176.897 243.4 176.897 243.4 176.896C243.4 176.896 243.4 176.896 243.4 176.895C243.4 176.895 243.4 176.895 243.4 176.894C243.4 176.894 243.4 176.893 243.4 176.893C243.4 176.893 243.4 176.892 243.4 176.892C243.4 176.891 243.4 176.891 243.4 176.891C243.4 176.89 243.4 176.89 243.4 176.889C243.4 176.889 243.4 176.888 243.4 176.888C243.4 176.888 243.4 176.887 243.4 176.887C243.4 176.886 243.4 176.886 243.4 176.886C243.4 176.885 243.4 176.885 243.4 176.884C243.4 176.884 243.4 176.884 243.4 176.883C243.4 176.883 243.4 176.882 243.4 176.882C243.4 176.881 243.4 176.881 243.4 176.881C243.4 176.88 243.4 176.88 243.4 176.879C243.4 176.879 243.4 176.878 243.4 176.878C243.4 176.878 243.4 176.877 243.4 176.877C243.4 176.876 243.4 176.876 243.4 176.875C243.4 176.875 243.4 176.875 243.4 176.874C243.4 176.874 243.4 176.873 243.4 176.873C243.4 176.872 243.4 176.872 243.4 176.872C243.4 176.871 243.4 176.871 243.4 176.87C243.4 176.87 243.4 176.869 243.4 176.869C243.4 176.869 243.4 176.868 243.4 176.868C243.4 176.867 243.4 176.867 243.4 176.866C243.4 176.866 243.4 176.865 243.4 176.865C243.4 176.865 243.4 176.864 243.4 176.864C243.4 176.863 243.4 176.863 243.4 176.862C243.4 176.862 243.4 176.861 243.4 176.861C243.4 176.86 243.4 176.86 243.4 176.86C243.4 176.859 243.4 176.859 243.4 176.858C243.4 176.858 243.4 176.857 243.4 176.857C243.4 176.856 243.4 176.856 243.4 176.855C243.4 176.855 243.4 176.854 243.4 176.854C243.4 176.854 243.4 176.853 243.4 176.853C243.4 176.852 243.4 176.852 243.4 176.851C243.4 176.851 243.4 176.85 243.4 176.85C243.4 176.849 243.4 176.849 243.4 176.848C243.4 176.848 243.4 176.847 243.4 176.847C243.4 176.847 243.4 176.846 243.4 176.846C243.4 176.845 243.4 176.845 243.4 176.844C243.4 176.844 243.4 176.843 243.4 176.843C243.4 176.842 243.4 176.842 243.4 176.841C243.4 176.841 243.4 176.84 243.4 176.84C243.4 176.839 243.4 176.839 243.4 176.838C243.4 176.838 243.4 176.837 243.4 176.837C243.4 176.836 243.4 176.836 243.4 176.835C243.4 176.835 243.4 176.834 243.4 176.834C243.4 176.833 243.4 176.833 243.4 176.832C243.4 176.832 243.4 176.831 243.4 176.831C243.4 176.83 243.4 176.83 243.4 176.829C243.4 176.829 243.4 176.828 243.4 176.828C243.4 176.827 243.4 176.827 243.4 176.826C243.4 176.826 243.4 176.825 243.4 176.825C243.4 176.824 243.4 176.824 243.4 176.823C243.4 176.823 243.4 176.822 243.4 176.822C243.4 176.821 243.4 176.821 243.4 176.82C243.4 176.82 243.4 176.819 243.4 176.819C243.4 176.818 243.4 176.818 243.4 176.817C243.4 176.817 243.4 176.816 243.4 176.816C243.4 176.815 243.4 176.814 243.4 176.814C243.4 176.813 243.4 176.813 243.4 176.812C243.4 176.812 243.4 176.811 243.4 176.811C243.4 176.81 243.4 176.81 243.4 176.809C243.4 176.809 243.4 176.808 243.4 176.808C243.4 176.807 243.4 176.807 243.4 176.806C243.4 176.805 243.4 176.805 243.4 176.804C243.4 176.804 243.4 176.803 243.4 176.803C243.4 176.802 243.4 176.802 243.4 176.801C243.4 176.801 243.4 176.8 243.4 176.799C243.4 176.799 243.4 176.798 243.4 176.798C243.4 176.797 243.4 176.797 243.4 176.796C243.4 176.796 243.4 176.795 243.4 176.795C243.4 176.794 243.4 176.793 243.4 176.793C243.4 176.792 243.4 176.792 243.4 176.791C243.4 176.791 243.4 176.79 243.4 176.789C243.4 176.789 243.4 176.788 243.4 176.788C243.4 176.787 243.4 176.787 243.4 176.786C243.4 176.786 243.4 176.785 243.4 176.784C243.4 176.784 243.4 176.783 243.4 176.783C243.4 176.782 243.4 176.782 243.4 176.781C243.4 176.78 243.4 176.78 243.4 176.779C243.4 176.779 243.4 176.778 243.4 176.778C243.4 176.777 243.4 176.776 243.4 176.776C243.4 176.775 243.4 176.775 243.4 176.774C243.4 176.773 243.4 176.773 243.4 176.772C243.4 176.772 243.4 176.771 243.4 176.771C243.4 176.77 243.4 176.769 243.4 176.769C243.4 176.768 243.4 176.768 243.4 176.767C243.4 176.766 243.4 176.766 243.4 176.765C243.4 176.765 243.4 176.764 243.4 176.763C243.4 176.763 243.4 176.762 243.4 176.762C243.4 176.761 243.4 176.76 243.4 176.76C243.4 176.759 243.4 176.759 243.4 176.758C243.4 176.757 243.4 176.757 243.4 176.756C243.4 176.756 243.4 176.755 243.4 176.754C243.4 176.754 243.4 176.753 243.4 176.752C243.4 176.752 243.4 176.751 243.4 176.751C243.4 176.75 243.4 176.749 243.4 176.749C243.4 176.748 243.4 176.748 243.4 176.747C243.4 176.746 243.4 176.746 243.4 176.745C243.4 176.744 243.4 176.744 243.4 176.743C243.4 176.743 243.4 176.742 243.4 176.741C243.4 176.741 243.4 176.74 243.4 176.739C243.4 176.739 243.4 176.738 243.4 176.738C243.4 176.737 243.4 176.736 243.4 176.736C243.4 176.735 243.4 176.734 243.4 176.734C243.4 176.733 243.4 176.732 243.4 176.732C243.4 176.731 243.4 176.731 243.4 176.73C243.4 176.729 243.4 176.729 243.4 176.728C243.4 176.727 243.4 176.727 243.4 176.726C243.4 176.725 243.4 176.725 243.4 176.724C243.4 176.723 243.4 176.723 243.4 176.722C243.4 176.721 243.4 176.721 243.4 176.72C243.4 176.719 243.4 176.719 243.4 176.718C243.4 176.717 243.4 176.717 243.4 176.716C243.4 176.715 243.4 176.715 243.4 176.714C243.4 176.713 243.4 176.713 243.4 176.712C243.4 176.711 243.4 176.711 243.4 176.71C243.4 176.709 243.4 176.709 243.4 176.708C243.4 176.707 243.4 176.707 243.4 176.706C243.4 176.705 243.4 176.705 243.4 176.704C243.4 176.703 243.4 176.703 243.4 176.702C243.4 176.701 243.4 176.701 243.4 176.7H242.4ZM242.4 177.05L241.475 176.669C239.05 182.559 236.281 187.75 232.818 192.945L233.65 193.5L234.482 194.055C238.019 188.75 240.85 183.441 243.325 177.431L242.4 177.05ZM233.65 193.5H232.65V193.85H233.65H234.65V193.5H233.65ZM233.65 193.85L232.756 193.403C232.611 193.691 232.468 193.908 232.293 194.17C232.118 194.433 231.911 194.741 231.706 195.153L232.6 195.6L233.494 196.047C233.639 195.759 233.782 195.542 233.957 195.28C234.132 195.017 234.339 194.709 234.544 194.297L233.65 193.85ZM232.6 195.6L231.763 195.053C220.647 212.074 205.713 226.312 188.006 236.381L188.5 237.25L188.994 238.119C206.987 227.888 222.153 213.426 233.437 196.147L232.6 195.6ZM188.5 237.25L188.013 236.377C169.959 246.445 149.121 252.003 128.283 252.35L128.3 253.35L128.317 254.35C149.479 253.997 170.641 248.355 188.987 238.123L188.5 237.25ZM128.3 253.35V252.35H125.5V253.35V254.35H128.3V253.35ZM125.5 253.35L125.521 252.35C108.846 252.003 92.5176 248.529 77.2286 242.274L76.85 243.2L76.4714 244.126C91.9824 250.471 108.554 253.997 125.479 254.35L125.5 253.35ZM76.85 243.2L77.2622 242.289C62.6695 235.687 49.47 226.656 38.0071 215.193L37.3 215.9L36.5929 216.607C48.23 228.244 61.6305 237.413 76.4378 244.111L76.85 243.2ZM37.3 215.9L38.0179 215.204C26.8965 203.735 17.8676 190.536 11.6191 175.956L10.7 176.35L9.78086 176.744C16.1324 191.564 25.3035 204.965 36.5821 216.596L37.3 215.9ZM10.7 176.35L11.6255 175.971C5.37623 160.695 2.25 144.374 2.25 127.7H1.25H0.25C0.25 144.626 3.42377 161.205 9.77445 176.729L10.7 176.35ZM1.25 127.7H2.25C2.25 111.026 5.37623 94.7047 11.6255 79.4286L10.7 79.05L9.77445 78.6714C3.42377 94.1953 0.25 110.774 0.25 127.7H1.25ZM10.7 79.05L11.6224 79.4361C17.8702 64.5109 26.8973 51.3142 38.0179 39.8461L37.3 39.15L36.5821 38.4539C25.3027 50.0857 16.1298 63.4891 9.77756 78.6639L10.7 79.05ZM37.3 39.15L38.0071 39.8571C49.4705 28.3937 62.6652 19.3672 77.2439 13.1191L76.85 12.2L76.4561 11.2808C61.6348 17.6328 48.2295 26.8063 36.5929 38.4429L37.3 39.15ZM76.85 12.2L77.2464 13.1181C92.5249 6.52055 108.84 3.05 125.5 3.05V2.05V1.05C108.56 1.05 91.9751 4.57944 76.4536 11.2819L76.85 12.2ZM125.5 2.05V3.05H128.3V2.05V1.05H125.5V2.05ZM128.3 2.05V3.05C154.33 3.05 178.977 11.378 200.165 26.661L200.75 25.85L201.335 25.039C179.823 9.52203 154.77 1.05 128.3 1.05V2.05ZM200.75 25.85L200.163 26.6599C210.228 33.9484 219.257 42.9765 226.55 52.7L227.35 52.1L228.15 51.5C220.743 41.6234 211.572 32.4516 201.337 25.04L200.75 25.85ZM227.35 52.1L226.544 52.6914C234.188 63.1149 240.091 74.2281 244.257 86.0328L245.2 85.7L246.143 85.3672C241.909 73.3718 235.913 62.0851 228.156 51.5086L227.35 52.1ZM245.2 85.7L244.306 86.1472L244.656 86.8472L245.55 86.4L246.444 85.9528L246.094 85.2528L245.2 85.7ZM245.55 86.4V85.4H224.55V86.4V87.4H245.55V86.4ZM224.55 86.4H225.55V86.05H224.55H223.55V86.4H224.55ZM224.55 86.05L225.509 85.7678C218.461 61.8031 205.765 41.3345 188.46 26.1484L187.8 26.9L187.14 27.6516C204.135 42.5655 216.639 62.6969 223.591 86.3322L224.55 86.05ZM187.8 26.9L188.461 26.1493C170.791 10.5997 149.915 2.45412 127.966 2.10011L127.95 3.09998L127.934 4.09985C149.385 4.44584 169.809 12.4002 187.139 27.6507L187.8 26.9ZM127.95 3.09998V2.09998H125.5V3.09998V4.09998H127.95V3.09998ZM125.5 3.09998L125.487 2.10007C97.856 2.45431 71.6898 15.9173 52.2771 39.5655L53.05 40.2L53.8229 40.8345C72.9102 17.5827 98.544 4.44565 125.513 4.0999L125.5 3.09998ZM53.05 40.2L52.2771 39.5655C32.871 63.2056 21.95 94.2336 21.95 127.7H22.95H23.95C23.95 94.6664 34.729 64.0944 53.8229 40.8345L53.05 40.2ZM22.95 127.7H21.95C21.95 160.815 32.8702 192.193 52.2771 215.834L53.05 215.2L53.8229 214.566C34.7298 191.307 23.95 160.385 23.95 127.7H22.95ZM53.05 215.2L52.2771 215.834C71.6953 239.489 97.8639 252.596 125.487 252.95L125.5 251.95L125.513 250.95C98.5361 250.604 72.9047 237.811 53.8229 214.566L53.05 215.2ZM125.5 251.95V252.95H128.3V251.95V250.95H125.5V251.95ZM128.3 251.95L128.313 252.95C155.94 252.596 181.757 239.486 201.173 215.834L200.4 215.2L199.627 214.566C180.543 237.814 155.26 250.604 128.287 250.95L128.3 251.95ZM200.4 215.2L201.173 215.834C220.583 192.19 231.148 161.163 231.5 128.061L230.5 128.05L229.5 128.039C229.152 160.737 218.717 191.31 199.627 214.566L200.4 215.2ZM230.5 128.05V127.05H148.95V128.05V129.05H230.5V128.05ZM466.772 234.45L467.282 235.31L467.289 235.306L466.772 234.45ZM511.222 189.3L511.929 188.593L511.013 187.677L510.359 188.795L511.222 189.3ZM511.922 190L512.792 190.493L513.167 189.831L512.629 189.293L511.922 190ZM467.472 235.5L467.982 236.36L467.989 236.356L467.472 235.5ZM353.022 242.85L353.418 241.932L353.416 241.931L353.022 242.85ZM313.472 215.9L312.754 216.596L312.759 216.602L312.765 216.607L313.472 215.9ZM286.872 176L285.946 176.379L285.949 176.386L286.872 176ZM286.872 78.7L285.953 78.3061L285.949 78.3137L285.946 78.3214L286.872 78.7ZM313.472 39.15L312.765 38.4429L312.759 38.4483L312.754 38.4539L313.472 39.15ZM353.022 12.2L353.416 13.1191L353.418 13.1181L353.022 12.2ZM401.672 1.69998V0.699981H401.661L401.651 0.700198L401.672 1.69998ZM404.472 1.69998L404.485 0.699981H404.472V1.69998ZM476.922 25.85L477.508 25.04L477.507 25.039L476.922 25.85ZM503.522 52.1L502.712 52.6865L502.718 52.6955L502.725 52.7044L503.522 52.1ZM521.372 85.7L520.426 86.0243L520.448 86.0875L520.477 86.1472L521.372 85.7ZM521.722 86.4V87.4H523.34L522.616 85.9528L521.722 86.4ZM500.722 86.4H499.722V87.4H500.722V86.4ZM500.722 86.05H501.722V85.906L501.681 85.7678L500.722 86.05ZM463.972 26.9L463.311 27.6508L463.321 27.6592L463.972 26.9ZM404.472 3.09998L404.488 2.10012L404.48 2.09998H404.472V3.09998ZM401.672 3.09998V2.0999L401.659 2.10007L401.672 3.09998ZM329.222 39.85L329.995 40.4845L329.995 40.4845L329.222 39.85ZM329.222 215.2L328.449 215.835L328.454 215.84L329.222 215.2ZM401.672 251.95L401.659 252.95H401.672V251.95ZM404.122 251.95V252.95H404.13L404.138 252.95L404.122 251.95ZM466.772 234.45L467.289 235.306C485.984 224.018 501.152 208.497 512.085 189.805L511.222 189.3L510.359 188.795C499.592 207.203 484.66 222.482 466.255 233.594L466.772 234.45ZM511.222 189.3L510.515 190.007L511.215 190.707L511.922 190L512.629 189.293L511.929 188.593L511.222 189.3ZM511.922 190L511.052 189.507C500.638 207.905 485.361 223.531 466.955 234.644L467.472 235.5L467.989 236.356C486.683 225.069 502.206 209.195 512.792 190.493L511.922 190ZM467.472 235.5L466.962 234.64C448.21 245.752 426.335 252 404.472 252V253V254C426.709 254 448.934 247.648 467.982 236.36L467.472 235.5ZM404.472 253V252H401.672V253V254H404.472V253ZM401.672 253V252C385.012 252 368.697 248.529 353.418 241.932L353.022 242.85L352.625 243.768C368.147 250.471 384.732 254 401.672 254V253ZM353.022 242.85L353.416 241.931C338.837 235.683 325.642 226.656 314.179 215.193L313.472 215.9L312.765 216.607C324.401 228.244 337.807 237.417 352.628 243.769L353.022 242.85ZM313.472 215.9L314.19 215.204C303.069 203.736 294.042 190.539 287.794 175.614L286.872 176L285.949 176.386C292.302 191.561 301.475 204.964 312.754 216.596L313.472 215.9ZM286.872 176L287.797 175.621C281.548 160.344 278.422 144.373 278.422 127.35H277.422H276.422C276.422 144.627 279.596 160.856 285.946 176.379L286.872 176ZM277.422 127.35H278.422C278.422 110.676 281.548 94.3547 287.797 79.0786L286.872 78.7L285.946 78.3214C279.596 93.8453 276.422 110.424 276.422 127.35H277.422ZM286.872 78.7L287.791 79.0939C294.039 64.5142 303.068 51.3151 314.19 39.8461L313.472 39.15L312.754 38.4539C301.475 50.0849 292.304 63.4858 285.953 78.3061L286.872 78.7ZM313.472 39.15L314.179 39.8571C325.642 28.3937 338.837 19.3672 353.416 13.1191L353.022 12.2L352.628 11.2808C337.807 17.6328 324.401 26.8063 312.765 38.4429L313.472 39.15ZM353.022 12.2L353.418 13.1181C368.697 6.52062 385.019 3.04715 401.693 2.69976L401.672 1.69998L401.651 0.700198C384.725 1.05284 368.147 4.57937 352.625 11.2819L353.022 12.2ZM401.672 1.69998V2.69998H404.472V1.69998V0.699981H401.672V1.69998ZM404.472 1.69998L404.458 2.69989C430.149 3.04708 455.151 11.3791 476.337 26.661L476.922 25.85L477.507 25.039C455.993 9.5209 430.594 1.05291 404.485 0.700072L404.472 1.69998ZM476.922 25.85L476.335 26.6599C486.411 33.9559 495.432 42.6328 502.712 52.6865L503.522 52.1L504.332 51.5135C496.912 41.2671 487.733 32.4441 477.508 25.04L476.922 25.85ZM503.522 52.1L502.725 52.7044C510.36 62.7682 516.26 73.8733 520.426 86.0243L521.372 85.7L522.318 85.3757C518.084 73.0267 512.084 61.7318 504.319 51.4956L503.522 52.1ZM521.372 85.7L520.477 86.1472L520.827 86.8472L521.722 86.4L522.616 85.9528L522.266 85.2528L521.372 85.7ZM521.722 86.4V85.4H500.722V86.4V87.4H521.722V86.4ZM500.722 86.4H501.722V86.05H500.722H499.722V86.4H500.722ZM500.722 86.05L501.681 85.7678C494.635 61.8103 481.94 40.9843 464.623 26.1407L463.972 26.9L463.321 27.6592C480.304 42.2157 492.809 62.6897 499.763 86.3322L500.722 86.05ZM463.972 26.9L464.633 26.1493C446.964 10.6011 426.089 2.45422 404.488 2.10012L404.472 3.09998L404.455 4.09985C425.555 4.44574 445.98 12.3989 463.311 27.6507L463.972 26.9ZM404.472 3.09998V2.09998H401.672V3.09998V4.09998H404.472V3.09998ZM401.672 3.09998L401.659 2.10007C374.036 2.45421 347.867 15.5605 328.449 39.2155L329.222 39.85L329.995 40.4845C349.077 17.2394 374.708 4.44575 401.685 4.0999L401.672 3.09998ZM329.222 39.85L328.449 39.2155C309.042 62.8566 298.122 94.2349 298.122 127.35H299.122H300.122C300.122 94.6651 310.902 63.7434 329.995 40.4845L329.222 39.85ZM299.122 127.35H298.122C298.122 160.814 309.041 192.192 328.449 215.834L329.222 215.2L329.995 214.566C310.902 191.308 300.122 160.386 300.122 127.35H299.122ZM329.222 215.2L328.454 215.84C347.865 239.134 374.029 252.596 401.659 252.95L401.672 251.95L401.685 250.95C374.714 250.604 349.078 237.466 329.99 214.56L329.222 215.2ZM401.672 251.95V252.95H404.122V251.95V250.95H401.672V251.95ZM404.122 251.95L404.138 252.95C426.707 252.597 448.228 246.601 467.282 235.31L466.772 234.45L466.262 233.59C447.515 244.699 426.336 250.603 404.106 250.95L404.122 251.95Z" fill="white" mask="url(#path-1-outside-1_167_9)"/>
</svg>
